<svg xmlns="http://www.w3.org/2000/svg" width="78.9" height="40.8" version="1.0"><path d="M23.5 3.5c.3 3.2-2 5.7-4 7.7-1 1-.2.2-.7.6l-.3-2a13 13 0 0 1 4.2-8.1c.3.6.6.6.8 1.8m.6 16.2a6 6 0 0 0-4.3-1l-.6-3.7c2.4-2.3 5-5 5-8.5A10 10 0 0 0 22.6 0c-1.7.1-2.9 2.2-3.8 3.4-1.5 2.7-1.1 6-.6 8.8l-2.7 2.7c-2.4 2.4-4.4 5.5-4 9a8 8 0 0 0 9.7 7.3c.2 2.2 1 4.6 0 6.8-.6 1.6-2.7 3-4.3 2.2l-.4-.3q1.7-.6 2.2-1.6c.9-1.4-.4-3.6-2.1-3.3-2.3 0-3.2 3.1-1.8 4.7 1.4 1.5 3.9 1.3 5.5.3 1.8-1.2 2-3.6 1.8-5.6l-.4-3.4 1.2-.4c2.6-1 4.3-4.3 3.5-7.1q-.4-2.4-2.3-3.8m.6 5.7c.2 2-1 4.4-3 5l-.3-1.5q-.7-3.7-1.2-7.5c1.7-.1 3.5.6 4 2.2q.4.9.5 1.8m-5.1 5.2c-2.6.2-5-1.6-5.7-4-.7-2.2-.5-4.7.8-6.6q1.9-2.4 4-4.5l.6 3.4c-3 .8-5 4.7-3.2 7.4.5.8 2 2.3 2.8 1.7-1.1-.7-2-1.9-1.8-3.3-.1-1.2 1.3-2.9 2.6-3.2l1.4 9z"/><path d="M78 7.7H0v-1h78zm0 6H0v-1h78zm0 6H0v-1h78zm0 6H0v-1h78zm0 6H0v-1h78z"/><path d="M67.5 31.1c-2.7 0-4.9 1.3-4.9 3 0 1.5 2.2 2.8 4.9 2.8 2.6 0 4.8-1.3 4.8-2.9s-2.2-2.9-4.8-2.9m-1.2.6q1 0 2.3.8c1.5 1 2.2 2.4 1.6 3.2-.5.8-2.1.7-3.5-.3-1.5-1-2.2-2.4-1.6-3.2q.3-.5 1.2-.5"/><path fill="none" stroke="#000" d="M78.4 6.8v24.8"/><path d="M33.5 19.1c-2.7 0-4.9 1.3-4.9 3 0 1.5 2.2 2.8 4.9 2.8 2.6 0 4.8-1.3 4.8-2.9s-2.2-2.9-4.8-2.9m12-6c2.6 0 4.8 1.3 4.8 3 0 1.5-2.2 2.8-4.8 2.8-2.7 0-4.9-1.3-4.9-2.9s2.2-2.9 4.9-2.9m1.1.6q-1 0-2.3.8c-1.4 1-2.2 2.4-1.6 3.2.5.8 2.1.7 3.6-.3 1.4-1 2.1-2.4 1.6-3.2q-.4-.5-1.3-.5"/><path fill="none" stroke="#000" d="M37.8 3v18.8m3.4-5.2v18.8"/></svg>