<svg xmlns="http://www.w3.org/2000/svg" fill="none" stroke="#e8eaed" stroke-linecap="round" stroke-linejoin="round" stroke-width="2" viewBox="0 0 24 24"><circle cx="12" cy="12" r="3"/><path d="M19.4 15a2 2 0 0 0 .3 1.8h0a2 2 0 1 1-2.7 3l-.1-.1a2 2 0 0 0-1.8-.4 2 2 0 0 0-1 1.5v.2a2 2 0 0 1-4 0v0A2 2 0 0 0 9 19.3a2 2 0 0 0-1.8.3h0a2 2 0 1 1-3-2.7l.1-.1a2 2 0 0 0 .4-1.8 2 2 0 0 0-1.5-1H3a2 2 0 0 1 0-4h0a2 2 0 0 0 1.7-1 2 2 0 0 0-.3-1.8h0a2 2 0 1 1 2.7-3l.1.1a2 2 0 0 0 1.8.4h0a2 2 0 0 0 1-1.5V3a2 2 0 0 1 4 0v0a2 2 0 0 0 1 1.6 2 2 0 0 0 1.8-.3h0a2 2 0 1 1 3 2.7l-.1.1a2 2 0 0 0-.4 1.8V9a2 2 0 0 0 1.5 1h.2a2 2 0 0 1 0 4h0a2 2 0 0 0-1.6 1"/></svg>